<?xml version="1.0" encoding="UTF-8" standalone="no"?><!DOCTYPE svg PUBLIC "-//W3C//DTD SVG 1.1//EN" "http://www.w3.org/Graphics/SVG/1.1/DTD/svg11.dtd"><svg width="100%" height="100%" viewBox="0 0 685 817" version="1.1" xmlns="http://www.w3.org/2000/svg" xmlns:xlink="http://www.w3.org/1999/xlink" xml:space="preserve" xmlns:serif="http://www.serif.com/" style="fill-rule:evenodd;clip-rule:evenodd;stroke-linecap:round;stroke-linejoin:round;stroke-miterlimit:1.5;"><g id="Shielkd"><g id="Shield-shape"><g id="Outer-Shield" serif:id="Outer Shield"><g id="Left-Outer-Shield" serif:id="Left Outer Shield"><path d="M7.979,137c-37.177,490.31 228.995,623.406 332.021,675" style="fill:none;stroke:#000;stroke-width:8.33px;"/><path d="M10,135c187.74,-8.564 296.2,-98.91 332,-129" style="fill:none;stroke:#000;stroke-width:8.33px;"/></g><g id="Right-Outer-Shield" serif:id="Right Outer Shield"><path d="M676.467,136c37.177,490.31 -228.995,623.406 -332.021,675" style="fill:none;stroke:#000;stroke-width:8.33px;"/><path d="M674.446,134c-187.74,-8.564 -296.2,-98.91 -332,-129" style="fill:none;stroke:#000;stroke-width:8.33px;"/></g></g><g id="Middle-Shield" serif:id="Middle Shield"><g><path d="M36.672,160.55c-33.952,447.78 209.132,569.331 303.221,616.45" style="fill:none;stroke:#000;stroke-width:3.75px;"/><path d="M38.518,158.724c171.455,-7.821 270.508,-90.331 303.202,-117.81" style="fill:none;stroke:#000;stroke-width:3.75px;"/></g><g><path d="M647.175,159.637c33.952,447.78 -209.132,569.331 -303.221,616.45" style="fill:none;stroke:#000;stroke-width:3.75px;"/><path d="M645.33,157.81c-171.455,-7.821 -270.508,-90.331 -303.202,-117.81" style="fill:none;stroke:#000;stroke-width:3.75px;"/></g></g><g id="Inner-Shield" serif:id="Inner Shield"><g><path d="M63.388,183.918c-30.958,408.288 190.687,519.118 276.479,562.082" style="fill:none;stroke:#000;stroke-width:8.33px;"/><path d="M65.071,182.253c156.334,-7.131 246.65,-82.364 276.461,-107.42" style="fill:none;stroke:#000;stroke-width:8.33px;"/></g><g><path d="M620.047,183.086c30.958,408.288 -190.687,519.118 -276.479,562.082" style="fill:none;stroke:#000;stroke-width:8.33px;"/><path d="M618.364,181.42c-156.334,-7.131 -246.65,-82.364 -276.461,-107.42" style="fill:none;stroke:#000;stroke-width:8.33px;"/></g></g></g><g id="Shield-network"><circle cx="508" cy="253" r="27" style="fill-opacity:0;stroke:#000;stroke-width:8.33px;"/><circle cx="337.5" cy="124.5" r="11.5" style="fill-opacity:0;stroke:#000;stroke-width:8.33px;"/><circle cx="314" cy="260" r="19" style="fill-opacity:0;stroke:#000;stroke-width:8.33px;"/><circle cx="157" cy="260" r="28" style="fill-opacity:0;stroke:#000;stroke-width:8.33px;"/><path d="M325,130.325l-145.614,112.857" style="fill:none;stroke:#000;stroke-width:3.75px;"/><path d="M350,130l133,107" style="fill:none;stroke:#000;stroke-width:3.75px;"/><path d="M316.71,239l18.29,-103" style="fill:none;stroke:#000;stroke-width:3.75px;"/><path d="M482,255l-149,3" style="fill:none;stroke:#000;stroke-width:3.75px;"/><path d="M322,279l38,94" style="fill:none;stroke:#000;stroke-width:3.75px;"/><path d="M407,375l82,-100" style="fill:none;stroke:#000;stroke-width:3.75px;"/><path d="M179,279l166,108" style="fill:none;stroke:#000;stroke-width:3.75px;"/><circle cx="115" cy="447" r="19" style="fill-opacity:0;stroke:#000;stroke-width:8.33px;"/><path d="M152,289l-36.367,139.011" style="fill:none;stroke:#000;stroke-width:3.75px;"/><path d="M344,415l-208,27" style="fill:none;stroke:#000;stroke-width:3.75px;"/><path d="M130,462l105,89" style="fill:none;stroke:#000;stroke-width:3.75px;"/><path d="M168,290l80,252" style="fill:none;stroke:#000;stroke-width:3.75px;"/><path d="M277,549l81,-108" style="fill:none;stroke:#000;stroke-width:3.75px;"/><path d="M290,568l160,-15" style="fill:none;stroke:#000;stroke-width:3.75px;"/><path d="M466,529l-63,-87" style="fill:none;stroke:#000;stroke-width:3.75px;"/><path d="M271,594l68,148" style="fill:none;stroke:#000;stroke-width:3.75px;"/><path d="M463,572l-124,170" style="fill:none;stroke:#000;stroke-width:3.75px;"/><path d="M509,282l-25,236" style="fill:none;stroke:#000;stroke-width:3.75px;"/><path d="M422,403l122,-22" style="fill:none;stroke:#000;stroke-width:3.75px;"/><path d="M524,278l34,82" style="fill:none;stroke:#000;stroke-width:3.75px;"/><path d="M185,262l110,-1" style="fill:none;stroke:#000;stroke-width:3.75px;"/><circle cx="381" cy="407" r="39" style="fill-opacity:0;stroke:#000;stroke-width:8.33px;"/><circle cx="566" cy="378" r="18" style="fill-opacity:0;stroke:#000;stroke-width:8.33px;"/><circle cx="478.5" cy="549.5" r="26.5" style="fill-opacity:0;stroke:#000;stroke-width:8.33px;"/><circle cx="260.5" cy="567.5" r="25.5" style="fill-opacity:0;stroke:#000;stroke-width:8.33px;"/></g></g></svg>